Genre:Animation | Adventure | Comedy | Family | Fantasy
Language: English
IMDb:http://www.imdb.com/title/tt0892769/
Video Source:Kak.priru4it.Drakona.2010.HDRip.Thanks
Audio Source:OWN Thanks
Encoder: Tony2
...............................................
General
Complete name : How.To.Train.Your.Dragon.2010.HDTV.480p.Mkv.FEEL-FREE.mkv
Format : Matroska
File size : 1.25 GiB
Duration : 1h 30mn
Overall bit rate : 1 986 Kbps
................................................
Video
ID : 1
Format : MPEG-4 Visual
Format profile : AdvancedSimple@L5
Format settings, BVOP : Yes
Format settings, QPel : No
Format settings, GMC : No warppoints
Format settings, Matrix : Custom
Codec ID : XVID
Codec ID/Hint : XviD
Duration : 1h 29mn
Bit rate : 1 626 Kbps
Width : 720 pixels
Height : 304 pixels
Display aspect ratio : 2.35:1
Frame rate : 29.970 fps
Resolution : 24 bits
Colorimetry : 4:2:0
Scan type : Progressive
Bits/(Pixel*Frame) : 0.248
Stream size : 1.02 GiB (82%)
Writing library : XviD 1.2.1 (UTC 2008-12-04)
...............................................
Audio
ID : 2
Format : MPEG Audio
Format version : Version 1
Format profile : Layer 3
Format settings, Mode : Joint stereo / MS Stereo
Codec ID : A_MPEG/L3
Codec ID/Hint : MP3
Duration : 1h 30mn
Bit rate mode : Constant
Bit rate : 320 Kbps
Channel(s) : 2 channels
Sampling rate : 48.0 KHz
Resolution : 16 bits
Stream size : 206 MiB (16%)
Writing library : LAME3.98 (alpha)
...............................................
Plot:
A hapless young Viking who aspires to hunt dragons becomes the unlikely friend of a young dragon himself, and learns there may be more to the creatures than he assumed
 
http://www.starshare.ro/bitbucket/How.To.Train.Your.Dragon.2010.HDTV.480p.Mkv.FEEL-FREE.mkv_snapshot_00.09.24_%5B2010.07.20_22.26.00%5D.jpg
 
http://www.starshare.ro/bitbucket/How.To.Train.Your.Dragon.2010.HDTV.480p.Mkv.FEEL-FREE.mkv_snapshot_01.00.35_%5B2010.07.20_22.26.07%5D.jpg
 
http://www.starshare.ro/bitbucket/How.To.Train.Your.Dragon.2010.HDTV.480p.Mkv.FEEL-FREE.mkv_snapshot_01.22.36_%5B2010.07.20_22.27.07%5D.jpg
 
http://www.starshare.ro/bitbucket/How.To.Train.Your.Dragon.2010.HDTV.480p.Mkv.FEEL-FREE.mkv_snapshot_01.25.29_%5B2010.07.20_22.26.12%5D.jpg
 
http://www.starshare.ro/bitbucket/How.To.Train.Your.Dragon.2010.HDTV.480p.Mkv.FEEL-FREE.mkv_snapshot_01.27.46_%5B2010.07.20_22.26.14%5D.jpg